<svg width="1440" height="656" viewBox="0 0 1440 656" fill="none" xmlns="http://www.w3.org/2000/svg">
<mask id="mask0_1:150" style="mask-type:alpha" maskUnits="userSpaceOnUse" x="0" y="0" width="1440" height="656">
<rect width="1440" height="656" fill="#008C8C"/>
</mask>
<g mask="url(#mask0_1:150)">
<rect width="1440" height="656" fill="#008C8C"/>
<rect width="1440" height="656" fill="url(#paint0_linear_1:150)"/>
<g opacity="0.3" filter="url(#filter0_f_1:150)">
<circle cx="817" cy="329" r="180" transform="rotate(-180 817 329)" fill="url(#paint1_linear_1:150)"/>
</g>
<g opacity="0.8">
<mask id="mask1_1:150" style="mask-type:alpha" maskUnits="userSpaceOnUse" x="543" y="-286" width="1240" height="1389">
<rect x="1048.37" y="-286" width="817.771" height="1145.83" transform="rotate(26.1152 1048.37 -286)" fill="url(#paint2_linear_1:150)"/>
</mask>
<g mask="url(#mask1_1:150)">
<path d="M1234.31 533.381C1126.36 753.582 877.126 852.84 677.673 755.064C656.755 744.809 637.14 732.758 619.003 719.206C804.949 770.437 1014.71 670.255 1111.36 473.108C1208 275.961 1158.68 48.8731 1004.33 -66.8209C1026.15 -60.7834 1047.69 -52.6598 1068.61 -42.405C1268.06 55.3712 1342.26 313.181 1234.31 533.381Z" fill="url(#paint3_linear_1:150)"/>
<g filter="url(#filter1_f_1:150)">
<path d="M1220.65 526.684C1112.7 746.885 877.126 852.84 677.673 755.064C656.755 744.809 637.14 732.758 619.003 719.206C804.949 770.437 1028.37 676.952 1125.02 479.805C1221.67 282.658 1158.68 48.8731 1004.33 -66.8209C1026.15 -60.7833 1047.69 -52.6598 1068.61 -42.405C1268.06 55.3712 1328.59 306.484 1220.65 526.684Z" fill="url(#paint4_linear_1:150)"/>
</g>
<g filter="url(#filter2_f_1:150)">
<path d="M1213.82 523.336C1105.87 743.537 860.118 852.974 660.666 755.198C639.747 744.943 620.133 732.892 601.995 719.34C787.941 770.571 1035.21 680.301 1131.85 483.154C1228.5 286.007 1140.33 40.9377 985.985 -74.7563C1007.81 -68.7187 1029.35 -60.5951 1050.26 -50.3404C1249.72 47.4359 1321.77 303.136 1213.82 523.336Z" fill="url(#paint5_linear_1:150)"/>
</g>
<g filter="url(#filter3_f_1:150)">
<path d="M1213.82 523.336C1105.87 743.537 860.118 852.974 660.666 755.198C639.747 744.943 620.133 732.892 601.995 719.34C787.941 770.571 1035.21 680.301 1131.85 483.154C1228.5 286.007 1140.33 40.9377 985.985 -74.7563C1007.81 -68.7187 1029.35 -60.5951 1050.26 -50.3404C1249.72 47.4359 1321.77 303.136 1213.82 523.336Z" fill="url(#paint6_linear_1:150)"/>
</g>
<g filter="url(#filter4_f_1:150)">
<path d="M1213.82 523.336C1105.87 743.537 860.118 852.974 660.666 755.198C639.747 744.943 620.133 732.892 601.995 719.34C787.941 770.571 1035.21 680.301 1131.85 483.154C1228.5 286.007 1140.33 40.9377 985.985 -74.7563C1007.81 -68.7187 1029.35 -60.5951 1050.26 -50.3404C1249.72 47.4359 1321.77 303.136 1213.82 523.336Z" fill="url(#paint7_linear_1:150)"/>
</g>
<g filter="url(#filter5_f_1:150)">
<path d="M1169.34 519.008C1061.4 739.208 860.118 852.974 660.666 755.198C639.747 744.943 620.133 732.892 601.995 719.34C787.941 770.571 1054.68 696.752 1154.05 494.037C1278.56 240.043 1140.33 40.9377 985.985 -74.7563C1007.81 -68.7187 1029.35 -60.5951 1050.26 -50.3404C1249.72 47.4359 1277.29 298.807 1169.34 519.008Z" fill="url(#paint8_linear_1:150)"/>
</g>
<g filter="url(#filter6_f_1:150)">
<path d="M1169.34 519.006C1061.4 739.207 869.174 896.066 669.721 798.29C648.803 788.035 603.458 705.336 585.32 691.785C771.266 743.016 1054.67 696.75 1154.05 494.036C1278.56 240.042 1109.47 53.1287 955.12 -62.5653C945.368 -42.6713 1018.56 -106.653 1039.48 -96.3985C1238.94 1.37768 1277.29 298.806 1169.34 519.006Z" fill="url(#paint9_linear_1:150)"/>
</g>
<g filter="url(#filter7_f_1:150)">
<path d="M1169.34 519.006C1061.4 739.207 869.174 896.066 669.721 798.29C648.803 788.035 603.458 705.336 585.32 691.785C771.266 743.016 1054.67 696.75 1154.05 494.036C1278.56 240.042 1109.47 53.1287 955.12 -62.5653C945.368 -42.6713 1018.56 -106.653 1039.48 -96.3985C1238.94 1.37768 1277.29 298.806 1169.34 519.006Z" fill="url(#paint10_linear_1:150)"/>
</g>
<g filter="url(#filter8_f_1:150)">
<path d="M1169.34 519.006C1061.4 739.207 869.174 896.066 669.721 798.29C648.803 788.035 603.458 705.336 585.32 691.785C771.266 743.016 1054.67 696.75 1154.05 494.036C1278.56 240.042 1109.47 53.1287 955.12 -62.5653C945.368 -42.6713 1018.56 -106.653 1039.48 -96.3985C1238.94 1.37768 1277.29 298.806 1169.34 519.006Z" fill="url(#paint11_linear_1:150)"/>
</g>
</g>
</g>
<g opacity="0.8">
<mask id="mask2_1:150" style="mask-type:alpha" maskUnits="userSpaceOnUse" x="-588" y="-557" width="1283" height="1403">
<rect x="121.205" y="845.203" width="817.771" height="1145.83" transform="rotate(-150 121.205 845.203)" fill="url(#paint12_linear_1:150)"/>
</mask>
<g mask="url(#mask2_1:150)">
<path d="M-8.79784 15.1066C113.82 -197.274 369.207 -279.418 561.577 -168.354C581.753 -156.705 600.506 -143.353 617.684 -128.604C435.636 -192.315 219.567 -106.575 109.786 83.5712C0.00520728 273.717 33.8343 503.626 179.986 629.511C158.624 622.009 137.684 612.445 117.508 600.796C-74.8612 489.731 -131.416 227.487 -8.79784 15.1066Z" fill="url(#paint13_linear_1:150)"/>
<g filter="url(#filter9_f_1:150)">
<path d="M4.37812 22.7138C126.996 -189.667 369.207 -279.418 561.577 -168.354C581.753 -156.705 600.506 -143.353 617.684 -128.604C435.636 -192.315 206.391 -114.182 96.6102 75.964C-13.1708 266.11 33.8343 503.626 179.986 629.511C158.624 622.009 137.684 612.445 117.508 600.796C-74.8612 489.731 -118.24 235.095 4.37812 22.7138Z" fill="url(#paint14_linear_1:150)"/>
</g>
<g filter="url(#filter10_f_1:150)">
<path d="M10.9639 26.5166C133.582 -185.864 386.185 -278.4 578.555 -167.335C598.73 -155.687 617.483 -142.334 634.661 -127.585C452.613 -191.296 199.801 -117.987 90.02 72.1596C-19.761 262.306 51.6011 512.786 197.753 638.671C176.391 631.169 155.451 621.605 135.275 609.956C-57.0944 498.891 -111.654 238.897 10.9639 26.5166Z" fill="url(#paint15_linear_1:150)"/>
</g>
<g filter="url(#filter11_f_1:150)">
<path d="M10.9639 26.5166C133.582 -185.864 386.185 -278.4 578.555 -167.335C598.73 -155.687 617.483 -142.334 634.661 -127.585C452.613 -191.296 199.801 -117.987 90.02 72.1596C-19.761 262.306 51.6011 512.786 197.753 638.671C176.391 631.169 155.451 621.605 135.275 609.956C-57.0944 498.891 -111.654 238.897 10.9639 26.5166Z" fill="url(#paint16_linear_1:150)"/>
</g>
<g filter="url(#filter12_f_1:150)">
<path d="M10.9639 26.5166C133.582 -185.864 386.185 -278.4 578.555 -167.335C598.73 -155.687 617.483 -142.334 634.661 -127.585C452.613 -191.296 199.801 -117.987 90.02 72.1596C-19.761 262.306 51.6011 512.786 197.753 638.671C176.391 631.169 155.451 621.605 135.275 609.956C-57.0944 498.891 -111.654 238.897 10.9639 26.5166Z" fill="url(#paint17_linear_1:150)"/>
</g>
<g filter="url(#filter13_f_1:150)">
<path d="M55.0429 33.8486C177.661 -178.532 386.185 -278.4 578.555 -167.335C598.73 -155.687 617.483 -142.334 634.661 -127.585C452.613 -191.296 181.49 -135.718 68.609 59.798C-72.8267 304.772 51.6012 512.786 197.753 638.671C176.391 631.169 155.451 621.605 135.275 609.956C-57.0944 498.891 -67.5752 246.229 55.0429 33.8486Z" fill="url(#paint18_linear_1:150)"/>
</g>
<g filter="url(#filter14_f_1:150)">
<path d="M55.0433 33.8499C177.661 -178.531 380.069 -322.007 572.439 -210.942C592.615 -199.293 632.253 -113.713 649.431 -98.9637C467.383 -162.675 181.491 -135.717 68.6095 59.7994C-72.8263 304.773 83.2204 502.714 229.372 628.599C240.45 609.412 163.087 668.287 142.911 656.639C-49.4585 545.574 -67.5748 246.231 55.0433 33.8499Z" fill="url(#paint19_linear_1:150)"/>
</g>
<g filter="url(#filter15_f_1:150)">
<path d="M55.0433 33.8499C177.661 -178.531 380.069 -322.007 572.439 -210.942C592.615 -199.293 632.253 -113.713 649.431 -98.9637C467.383 -162.675 181.491 -135.717 68.6095 59.7994C-72.8263 304.773 83.2204 502.714 229.372 628.599C240.45 609.412 163.087 668.287 142.911 656.639C-49.4585 545.574 -67.5748 246.231 55.0433 33.8499Z" fill="url(#paint20_linear_1:150)"/>
</g>
<g filter="url(#filter16_f_1:150)">
<path d="M55.0433 33.8499C177.661 -178.531 380.069 -322.007 572.439 -210.942C592.615 -199.293 632.253 -113.713 649.431 -98.9637C467.383 -162.675 181.491 -135.717 68.6095 59.7994C-72.8263 304.773 83.2204 502.714 229.372 628.599C240.45 609.412 163.087 668.287 142.911 656.639C-49.4585 545.574 -67.5748 246.231 55.0433 33.8499Z" fill="url(#paint21_linear_1:150)"/>
</g>
</g>
</g>
<path d="M639.998 295.499C639.998 201.886 715.886 125.999 809.498 125.999C903.11 125.999 978.998 201.886 978.998 295.499C978.998 389.111 903.11 464.999 809.498 464.999C715.886 464.999 639.998 389.111 639.998 295.499Z" stroke="url(#paint22_linear_1:150)" stroke-width="90"/>
<path opacity="0.4" d="M539.75 295.5C539.75 146.521 660.521 25.75 809.5 25.75C958.479 25.7499 1079.25 146.521 1079.25 295.5C1079.25 444.479 958.479 565.25 809.5 565.25C660.521 565.25 539.75 444.479 539.75 295.5Z" stroke="url(#paint23_linear_1:150)" stroke-width="1.5"/>
<path opacity="0.4" d="M426.75 295.5C426.75 84.113 598.113 -87.25 809.5 -87.25C1020.89 -87.25 1192.25 84.1129 1192.25 295.5C1192.25 506.887 1020.89 678.25 809.5 678.25C598.113 678.25 426.75 506.887 426.75 295.5Z" stroke="url(#paint24_linear_1:150)" stroke-width="1.5"/>
</g>
<defs>
<filter id="filter0_f_1:150" x="597" y="109" width="440" height="440" filterUnits="userSpaceOnUse" color-interpolation-filters="sRGB">
<feFlood flood-opacity="0" result="BackgroundImageFix"/>
<feBlend mode="normal" in="SourceGraphic" in2="BackgroundImageFix" result="shape"/>
<feGaussianBlur stdDeviation="20" result="effect1_foregroundBlur_1:150"/>
</filter>
<filter id="filter1_f_1:150" x="607" y="-78.8233" width="678.538" height="882.429" filterUnits="userSpaceOnUse" color-interpolation-filters="sRGB">
<feFlood flood-opacity="0" result="BackgroundImageFix"/>
<feBlend mode="normal" in="SourceGraphic" in2="BackgroundImageFix" result="shape"/>
<feGaussianBlur stdDeviation="6.0012" result="effect1_foregroundBlur_1:150"/>
</filter>
<filter id="filter2_f_1:150" x="565.988" y="-110.763" width="733.912" height="937.955" filterUnits="userSpaceOnUse" color-interpolation-filters="sRGB">
<feFlood flood-opacity="0" result="BackgroundImageFix"/>
<feBlend mode="normal" in="SourceGraphic" in2="BackgroundImageFix" result="shape"/>
<feGaussianBlur stdDeviation="18.0036" result="effect1_foregroundBlur_1:150"/>
</filter>
<filter id="filter3_f_1:150" x="549.985" y="-126.767" width="765.918" height="969.962" filterUnits="userSpaceOnUse" color-interpolation-filters="sRGB">
<feFlood flood-opacity="0" result="BackgroundImageFix"/>
<feBlend mode="normal" in="SourceGraphic" in2="BackgroundImageFix" result="shape"/>
<feGaussianBlur stdDeviation="26.0052" result="effect1_foregroundBlur_1:150"/>
</filter>
<filter id="filter4_f_1:150" x="549.985" y="-126.767" width="765.918" height="969.962" filterUnits="userSpaceOnUse" color-interpolation-filters="sRGB">
<feFlood flood-opacity="0" result="BackgroundImageFix"/>
<feBlend mode="normal" in="SourceGraphic" in2="BackgroundImageFix" result="shape"/>
<feGaussianBlur stdDeviation="26.0052" result="effect1_foregroundBlur_1:150"/>
</filter>
<filter id="filter5_f_1:150" x="477.97" y="-198.781" width="877.756" height="1113.32" filterUnits="userSpaceOnUse" color-interpolation-filters="sRGB">
<feFlood flood-opacity="0" result="BackgroundImageFix"/>
<feBlend mode="normal" in="SourceGraphic" in2="BackgroundImageFix" result="shape"/>
<feGaussianBlur stdDeviation="62.0124" result="effect1_foregroundBlur_1:150"/>
</filter>
<filter id="filter6_f_1:150" x="509.305" y="-173.535" width="795.066" height="1077.52" filterUnits="userSpaceOnUse" color-interpolation-filters="sRGB">
<feFlood flood-opacity="0" result="BackgroundImageFix"/>
<feBlend mode="normal" in="SourceGraphic" in2="BackgroundImageFix" result="shape"/>
<feGaussianBlur stdDeviation="38.0076" result="effect1_foregroundBlur_1:150"/>
</filter>
<filter id="filter7_f_1:150" x="421.287" y="-261.553" width="971.102" height="1253.56" filterUnits="userSpaceOnUse" color-interpolation-filters="sRGB">
<feFlood flood-opacity="0" result="BackgroundImageFix"/>
<feBlend mode="normal" in="SourceGraphic" in2="BackgroundImageFix" result="shape"/>
<feGaussianBlur stdDeviation="82.0164" result="effect1_foregroundBlur_1:150"/>
</filter>
<filter id="filter8_f_1:150" x="341.271" y="-341.569" width="1131.13" height="1413.59" filterUnits="userSpaceOnUse" color-interpolation-filters="sRGB">
<feFlood flood-opacity="0" result="BackgroundImageFix"/>
<feBlend mode="normal" in="SourceGraphic" in2="BackgroundImageFix" result="shape"/>
<feGaussianBlur stdDeviation="122.024" result="effect1_foregroundBlur_1:150"/>
</filter>
<filter id="filter9_f_1:150" x="-76.4377" y="-228.229" width="706.124" height="869.742" filterUnits="userSpaceOnUse" color-interpolation-filters="sRGB">
<feFlood flood-opacity="0" result="BackgroundImageFix"/>
<feBlend mode="normal" in="SourceGraphic" in2="BackgroundImageFix" result="shape"/>
<feGaussianBlur stdDeviation="6.0012" result="effect1_foregroundBlur_1:150"/>
</filter>
<filter id="filter10_f_1:150" x="-90.421" y="-250.643" width="761.089" height="925.321" filterUnits="userSpaceOnUse" color-interpolation-filters="sRGB">
<feFlood flood-opacity="0" result="BackgroundImageFix"/>
<feBlend mode="normal" in="SourceGraphic" in2="BackgroundImageFix" result="shape"/>
<feGaussianBlur stdDeviation="18.0036" result="effect1_foregroundBlur_1:150"/>
</filter>
<filter id="filter11_f_1:150" x="-106.424" y="-266.646" width="793.096" height="957.328" filterUnits="userSpaceOnUse" color-interpolation-filters="sRGB">
<feFlood flood-opacity="0" result="BackgroundImageFix"/>
<feBlend mode="normal" in="SourceGraphic" in2="BackgroundImageFix" result="shape"/>
<feGaussianBlur stdDeviation="26.0052" result="effect1_foregroundBlur_1:150"/>
</filter>
<filter id="filter12_f_1:150" x="-106.424" y="-266.646" width="793.096" height="957.328" filterUnits="userSpaceOnUse" color-interpolation-filters="sRGB">
<feFlood flood-opacity="0" result="BackgroundImageFix"/>
<feBlend mode="normal" in="SourceGraphic" in2="BackgroundImageFix" result="shape"/>
<feGaussianBlur stdDeviation="26.0052" result="effect1_foregroundBlur_1:150"/>
</filter>
<filter id="filter13_f_1:150" x="-149.454" y="-337.205" width="908.14" height="1099.9" filterUnits="userSpaceOnUse" color-interpolation-filters="sRGB">
<feFlood flood-opacity="0" result="BackgroundImageFix"/>
<feBlend mode="normal" in="SourceGraphic" in2="BackgroundImageFix" result="shape"/>
<feGaussianBlur stdDeviation="62.0124" result="effect1_foregroundBlur_1:150"/>
</filter>
<filter id="filter14_f_1:150" x="-98.5218" y="-325.506" width="823.968" height="1059.7" filterUnits="userSpaceOnUse" color-interpolation-filters="sRGB">
<feFlood flood-opacity="0" result="BackgroundImageFix"/>
<feBlend mode="normal" in="SourceGraphic" in2="BackgroundImageFix" result="shape"/>
<feGaussianBlur stdDeviation="38.0076" result="effect1_foregroundBlur_1:150"/>
</filter>
<filter id="filter15_f_1:150" x="-186.539" y="-413.524" width="1000" height="1235.74" filterUnits="userSpaceOnUse" color-interpolation-filters="sRGB">
<feFlood flood-opacity="0" result="BackgroundImageFix"/>
<feBlend mode="normal" in="SourceGraphic" in2="BackgroundImageFix" result="shape"/>
<feGaussianBlur stdDeviation="82.0164" result="effect1_foregroundBlur_1:150"/>
</filter>
<filter id="filter16_f_1:150" x="-266.556" y="-493.54" width="1160.04" height="1395.77" filterUnits="userSpaceOnUse" color-interpolation-filters="sRGB">
<feFlood flood-opacity="0" result="BackgroundImageFix"/>
<feBlend mode="normal" in="SourceGraphic" in2="BackgroundImageFix" result="shape"/>
<feGaussianBlur stdDeviation="122.024" result="effect1_foregroundBlur_1:150"/>
</filter>
<linearGradient id="paint0_linear_1:150" x1="1485.5" y1="715.5" x2="387.872" y2="102.255" gradientUnits="userSpaceOnUse">
<stop stop-color="#067373"/>
<stop offset="1" stop-color="#067373" stop-opacity="0"/>
</linearGradient>
<linearGradient id="paint1_linear_1:150" x1="817" y1="149" x2="817" y2="509" gradientUnits="userSpaceOnUse">
<stop stop-color="#06B7B7"/>
<stop offset="1" stop-color="#06B7B7" stop-opacity="0"/>
</linearGradient>
<linearGradient id="paint2_linear_1:150" x1="1457.25" y1="-286" x2="1457.25" y2="859.83" gradientUnits="userSpaceOnUse">
<stop stop-color="#C4C4C4" stop-opacity="0"/>
<stop offset="0.380208" stop-color="#C4C4C4"/>
<stop offset="0.578125" stop-color="#C4C4C4"/>
<stop offset="1" stop-color="#C4C4C4" stop-opacity="0"/>
</linearGradient>
<linearGradient id="paint3_linear_1:150" x1="1218.46" y1="31.0527" x2="827.519" y2="828.521" gradientUnits="userSpaceOnUse">
<stop stop-color="#0B8384"/>
<stop offset="1" stop-color="#67E4E7"/>
</linearGradient>
<linearGradient id="paint4_linear_1:150" x1="1211.63" y1="27.7043" x2="820.688" y2="825.173" gradientUnits="userSpaceOnUse">
<stop stop-color="#0B8384"/>
<stop offset="1" stop-color="#67E4E7"/>
</linearGradient>
<linearGradient id="paint5_linear_1:150" x1="1198.83" y1="22.4896" x2="804.961" y2="825.935" gradientUnits="userSpaceOnUse">
<stop stop-color="#0B8384"/>
<stop offset="1" stop-color="#67E4E7"/>
</linearGradient>
<linearGradient id="paint6_linear_1:150" x1="1198.83" y1="22.4896" x2="804.961" y2="825.935" gradientUnits="userSpaceOnUse">
<stop stop-color="#0B8384"/>
<stop offset="1" stop-color="#67E4E7"/>
</linearGradient>
<linearGradient id="paint7_linear_1:150" x1="1198.83" y1="22.4896" x2="804.961" y2="825.935" gradientUnits="userSpaceOnUse">
<stop stop-color="#0B8384"/>
<stop offset="1" stop-color="#67E4E7"/>
</linearGradient>
<linearGradient id="paint8_linear_1:150" x1="1180.04" y1="13.2812" x2="786.177" y2="816.726" gradientUnits="userSpaceOnUse">
<stop stop-color="#0B8384"/>
<stop offset="1" stop-color="#67E4E7"/>
</linearGradient>
<linearGradient id="paint9_linear_1:150" x1="1186.13" y1="-24.5104" x2="760.867" y2="842.971" gradientUnits="userSpaceOnUse">
<stop stop-color="#0B8384"/>
<stop offset="1" stop-color="#67E4E7"/>
</linearGradient>
<linearGradient id="paint10_linear_1:150" x1="1186.13" y1="-24.5104" x2="760.867" y2="842.971" gradientUnits="userSpaceOnUse">
<stop stop-color="#0B8384"/>
<stop offset="1" stop-color="#67E4E7"/>
</linearGradient>
<linearGradient id="paint11_linear_1:150" x1="1186.13" y1="-24.5104" x2="760.867" y2="842.971" gradientUnits="userSpaceOnUse">
<stop stop-color="#0B8384"/>
<stop offset="1" stop-color="#67E4E7"/>
</linearGradient>
<linearGradient id="paint12_linear_1:150" x1="530.09" y1="845.203" x2="530.09" y2="1991.03" gradientUnits="userSpaceOnUse">
<stop stop-color="#C4C4C4" stop-opacity="0"/>
<stop offset="0.380208" stop-color="#C4C4C4"/>
<stop offset="0.578125" stop-color="#C4C4C4"/>
<stop offset="1" stop-color="#C4C4C4" stop-opacity="0"/>
</linearGradient>
<linearGradient id="paint13_linear_1:150" x1="-27.0158" y1="517.355" x2="417.053" y2="-251.795" gradientUnits="userSpaceOnUse">
<stop stop-color="#0B8384"/>
<stop offset="1" stop-color="#67E4E7"/>
</linearGradient>
<linearGradient id="paint14_linear_1:150" x1="-20.4279" y1="521.158" x2="423.641" y2="-247.991" gradientUnits="userSpaceOnUse">
<stop stop-color="#0B8384"/>
<stop offset="1" stop-color="#67E4E7"/>
</linearGradient>
<linearGradient id="paint15_linear_1:150" x1="-8.01378" y1="527.228" x2="439.383" y2="-247.686" gradientUnits="userSpaceOnUse">
<stop stop-color="#0B8384"/>
<stop offset="1" stop-color="#67E4E7"/>
</linearGradient>
<linearGradient id="paint16_linear_1:150" x1="-8.01378" y1="527.228" x2="439.383" y2="-247.686" gradientUnits="userSpaceOnUse">
<stop stop-color="#0B8384"/>
<stop offset="1" stop-color="#67E4E7"/>
</linearGradient>
<linearGradient id="paint17_linear_1:150" x1="-8.01378" y1="527.228" x2="439.383" y2="-247.686" gradientUnits="userSpaceOnUse">
<stop stop-color="#0B8384"/>
<stop offset="1" stop-color="#67E4E7"/>
</linearGradient>
<linearGradient id="paint18_linear_1:150" x1="10.1033" y1="537.688" x2="457.5" y2="-237.226" gradientUnits="userSpaceOnUse">
<stop stop-color="#0B8384"/>
<stop offset="1" stop-color="#67E4E7"/>
</linearGradient>
<linearGradient id="paint19_linear_1:150" x1="1.47499" y1="574.981" x2="484.53" y2="-261.696" gradientUnits="userSpaceOnUse">
<stop stop-color="#0B8384"/>
<stop offset="1" stop-color="#67E4E7"/>
</linearGradient>
<linearGradient id="paint20_linear_1:150" x1="1.47499" y1="574.981" x2="484.53" y2="-261.696" gradientUnits="userSpaceOnUse">
<stop stop-color="#0B8384"/>
<stop offset="1" stop-color="#67E4E7"/>
</linearGradient>
<linearGradient id="paint21_linear_1:150" x1="1.47499" y1="574.981" x2="484.53" y2="-261.696" gradientUnits="userSpaceOnUse">
<stop stop-color="#0B8384"/>
<stop offset="1" stop-color="#67E4E7"/>
</linearGradient>
<linearGradient id="paint22_linear_1:150" x1="835.085" y1="-31.582" x2="715.498" y2="472.999" gradientUnits="userSpaceOnUse">
<stop stop-color="#00A3A3"/>
<stop offset="1" stop-color="#00A3A3" stop-opacity="0"/>
</linearGradient>
<linearGradient id="paint23_linear_1:150" x1="841.766" y1="-116.972" x2="690.959" y2="519.34" gradientUnits="userSpaceOnUse">
<stop stop-color="#00A3A3"/>
<stop offset="1" stop-color="#00A3A3" stop-opacity="0"/>
</linearGradient>
<linearGradient id="paint24_linear_1:150" x1="855.246" y1="-289.28" x2="641.439" y2="612.848" gradientUnits="userSpaceOnUse">
<stop stop-color="#00A3A3"/>
<stop offset="1" stop-color="#00A3A3" stop-opacity="0"/>
</linearGradient>
</defs>
</svg>
