<svg width="95" height="80" viewBox="0 0 95 80" fill="none" xmlns="http://www.w3.org/2000/svg">
<rect width="95" height="80" rx="6" fill="white"/>
<path d="M27.9852 49.156C27.0492 49.156 26.3052 48.864 25.7532 48.28C25.2092 47.688 24.9372 46.892 24.9372 45.892C24.9372 45.228 25.0692 44.648 25.3332 44.152C25.6052 43.656 25.9732 43.276 26.4372 43.012C26.9092 42.748 27.4412 42.616 28.0332 42.616C28.6172 42.616 29.1132 42.728 29.5212 42.952V44.188C29.1532 43.956 28.7132 43.84 28.2012 43.84C27.6492 43.84 27.2172 44.024 26.9052 44.392C26.5932 44.752 26.4372 45.248 26.4372 45.88C26.4372 46.512 26.5972 47.012 26.9172 47.38C27.2372 47.748 27.6692 47.932 28.2132 47.932C28.7412 47.932 29.2052 47.804 29.6052 47.548V48.784C29.1412 49.032 28.6012 49.156 27.9852 49.156ZM33.5679 49.156C32.9679 49.156 32.4439 49.02 31.9959 48.748C31.5559 48.468 31.2159 48.084 30.9759 47.596C30.7439 47.1 30.6279 46.532 30.6279 45.892C30.6279 45.228 30.7519 44.648 30.9999 44.152C31.2559 43.656 31.6039 43.276 32.0439 43.012C32.4919 42.748 32.9999 42.616 33.5679 42.616C34.1679 42.616 34.6879 42.756 35.1279 43.036C35.5759 43.308 35.9159 43.692 36.1479 44.188C36.3879 44.676 36.5079 45.24 36.5079 45.88C36.5079 46.544 36.3799 47.124 36.1239 47.62C35.8759 48.116 35.5279 48.496 35.0799 48.76C34.6399 49.024 34.1359 49.156 33.5679 49.156ZM33.5679 47.932C34.0159 47.932 34.3679 47.752 34.6239 47.392C34.8799 47.032 35.0079 46.532 35.0079 45.892C35.0079 45.26 34.8799 44.76 34.6239 44.392C34.3679 44.024 34.0159 43.84 33.5679 43.84C33.1199 43.84 32.7679 44.02 32.5119 44.38C32.2559 44.74 32.1279 45.24 32.1279 45.88C32.1279 46.512 32.2559 47.012 32.5119 47.38C32.7679 47.748 33.1199 47.932 33.5679 47.932ZM37.849 42.772H39.157L39.241 43.528C39.449 43.232 39.709 43.008 40.021 42.856C40.341 42.696 40.693 42.616 41.077 42.616C41.733 42.616 42.257 42.84 42.649 43.288C43.041 43.736 43.237 44.332 43.237 45.076V49H41.749V45.304C41.749 44.84 41.649 44.484 41.449 44.236C41.249 43.988 40.961 43.864 40.585 43.864C40.209 43.864 39.905 43.996 39.673 44.26C39.449 44.516 39.337 44.864 39.337 45.304V49H37.849V42.772ZM47.6486 49.156C46.6726 49.156 45.9086 48.864 45.3566 48.28C44.8046 47.696 44.5286 46.892 44.5286 45.868C44.5286 45.212 44.6486 44.64 44.8886 44.152C45.1366 43.656 45.4766 43.276 45.9086 43.012C46.3406 42.748 46.8326 42.616 47.3846 42.616C48.1926 42.616 48.8286 42.888 49.2926 43.432C49.7566 43.976 49.9886 44.728 49.9886 45.688V46.36H45.9566C46.0366 46.888 46.2366 47.288 46.5566 47.56C46.8766 47.832 47.3046 47.968 47.8406 47.968C48.4326 47.968 49.0206 47.816 49.6046 47.512V48.7C49.0446 49.004 48.3926 49.156 47.6486 49.156ZM47.3246 43.756C46.9326 43.756 46.6166 43.892 46.3766 44.164C46.1446 44.428 46.0006 44.816 45.9446 45.328H48.6086C48.5926 44.832 48.4726 44.448 48.2486 44.176C48.0246 43.896 47.7166 43.756 47.3246 43.756ZM52.819 45.796L50.779 42.772H52.471L53.731 44.824L54.955 42.772H56.587L54.535 45.808L56.707 49H54.991L53.647 46.852L52.291 49H50.659L52.819 45.796ZM59.4382 49.156C58.8302 49.156 58.3422 48.992 57.9742 48.664C57.6062 48.336 57.4222 47.896 57.4222 47.344C57.4222 46.64 57.7022 46.096 58.2622 45.712C58.8222 45.32 59.6182 45.124 60.6502 45.124C60.7382 45.124 60.8262 45.124 60.9142 45.124C61.0022 45.124 61.0862 45.128 61.1662 45.136C61.1422 44.688 61.0142 44.356 60.7822 44.14C60.5502 43.924 60.2022 43.816 59.7382 43.816C59.1462 43.816 58.5542 43.984 57.9622 44.32V43.12C58.6102 42.784 59.2782 42.616 59.9662 42.616C60.8062 42.616 61.4542 42.848 61.9102 43.312C62.3662 43.768 62.5942 44.424 62.5942 45.28V49H61.3582L61.2742 48.28C61.0822 48.552 60.8222 48.768 60.4942 48.928C60.1742 49.08 59.8222 49.156 59.4382 49.156ZM59.8462 48.1C60.2142 48.1 60.5262 47.968 60.7822 47.704C61.0462 47.44 61.1782 47.12 61.1782 46.744V46.132C61.0982 46.132 61.0142 46.132 60.9262 46.132C60.8462 46.124 60.7622 46.12 60.6742 46.12C60.0822 46.12 59.6262 46.212 59.3062 46.396C58.9942 46.572 58.8382 46.832 58.8382 47.176C58.8382 47.456 58.9302 47.68 59.1142 47.848C59.2982 48.016 59.5422 48.1 59.8462 48.1ZM61.0702 41.932C60.8782 41.932 60.7062 41.896 60.5542 41.824C60.4022 41.744 60.2622 41.66 60.1342 41.572C60.0062 41.476 59.8862 41.392 59.7742 41.32C59.6622 41.24 59.5542 41.2 59.4502 41.2C59.2102 41.2 59.0902 41.392 59.0902 41.776V41.908H58.1422V41.776C58.1422 41.272 58.2422 40.888 58.4422 40.624C58.6502 40.352 58.9502 40.216 59.3422 40.216C59.5342 40.216 59.7062 40.252 59.8582 40.324C60.0102 40.396 60.1502 40.48 60.2782 40.576C60.4062 40.672 60.5262 40.756 60.6382 40.828C60.7502 40.9 60.8582 40.936 60.9622 40.936C61.2022 40.936 61.3222 40.744 61.3222 40.36V40.24H62.2702V40.36C62.2702 40.872 62.1662 41.264 61.9582 41.536C61.7582 41.8 61.4622 41.932 61.0702 41.932ZM66.8257 49.156C66.2257 49.156 65.7017 49.02 65.2537 48.748C64.8137 48.468 64.4737 48.084 64.2337 47.596C64.0017 47.1 63.8857 46.532 63.8857 45.892C63.8857 45.228 64.0097 44.648 64.2577 44.152C64.5137 43.656 64.8617 43.276 65.3017 43.012C65.7497 42.748 66.2577 42.616 66.8257 42.616C67.4257 42.616 67.9457 42.756 68.3857 43.036C68.8337 43.308 69.1737 43.692 69.4057 44.188C69.6457 44.676 69.7657 45.24 69.7657 45.88C69.7657 46.544 69.6377 47.124 69.3817 47.62C69.1337 48.116 68.7857 48.496 68.3377 48.76C67.8977 49.024 67.3937 49.156 66.8257 49.156ZM66.8257 47.932C67.2737 47.932 67.6257 47.752 67.8817 47.392C68.1377 47.032 68.2657 46.532 68.2657 45.892C68.2657 45.26 68.1377 44.76 67.8817 44.392C67.6257 44.024 67.2737 43.84 66.8257 43.84C66.3777 43.84 66.0257 44.02 65.7697 44.38C65.5137 44.74 65.3857 45.24 65.3857 45.88C65.3857 46.512 65.5137 47.012 65.7697 47.38C66.0257 47.748 66.3777 47.932 66.8257 47.932ZM17.4488 55.9H19.0448L20.4128 62.128L21.8168 56.26H23.3288L24.7328 62.116L26.1008 55.9H27.6488L25.5968 64H23.9408L22.5368 58.144L21.1448 64H19.5248L17.4488 55.9ZM28.8337 57.772H30.3217V64H28.8337V57.772ZM29.5777 56.836C29.3217 56.836 29.1057 56.752 28.9297 56.584C28.7617 56.416 28.6777 56.208 28.6777 55.96C28.6777 55.712 28.7617 55.504 28.9297 55.336C29.1057 55.168 29.3217 55.084 29.5777 55.084C29.8337 55.084 30.0457 55.168 30.2137 55.336C30.3897 55.504 30.4777 55.712 30.4777 55.96C30.4777 56.208 30.3897 56.416 30.2137 56.584C30.0457 56.752 29.8337 56.836 29.5777 56.836ZM31.8857 61.252V60.004H35.1737V61.252H31.8857ZM37.1185 58.924H36.1345V57.772H37.1185V57.28C37.1185 56.52 37.3145 55.936 37.7065 55.528C38.1065 55.112 38.6705 54.904 39.3985 54.904C39.7105 54.904 39.9985 54.948 40.2625 55.036V56.224C40.0305 56.136 39.8065 56.092 39.5905 56.092C39.2545 56.092 39.0065 56.188 38.8465 56.38C38.6865 56.564 38.6065 56.848 38.6065 57.232V57.772H40.0465V58.924H38.6065V64H37.1185V58.924ZM41.3587 57.772H42.8467V64H41.3587V57.772ZM42.1027 56.836C41.8467 56.836 41.6307 56.752 41.4547 56.584C41.2867 56.416 41.2027 56.208 41.2027 55.96C41.2027 55.712 41.2867 55.504 41.4547 55.336C41.6307 55.168 41.8467 55.084 42.1027 55.084C42.3587 55.084 42.5707 55.168 42.7387 55.336C42.9147 55.504 43.0027 55.712 43.0027 55.96C43.0027 56.208 42.9147 56.416 42.7387 56.584C42.5707 56.752 42.3587 56.836 42.1027 56.836ZM49.6537 64.156C48.6777 64.156 47.9137 63.864 47.3617 63.28C46.8097 62.696 46.5337 61.892 46.5337 60.868C46.5337 60.212 46.6537 59.64 46.8937 59.152C47.1417 58.656 47.4817 58.276 47.9137 58.012C48.3457 57.748 48.8377 57.616 49.3897 57.616C50.1977 57.616 50.8337 57.888 51.2977 58.432C51.7617 58.976 51.9937 59.728 51.9937 60.688V61.36H47.9617C48.0417 61.888 48.2417 62.288 48.5617 62.56C48.8817 62.832 49.3097 62.968 49.8457 62.968C50.4377 62.968 51.0257 62.816 51.6097 62.512V63.7C51.0497 64.004 50.3977 64.156 49.6537 64.156ZM49.3297 58.756C48.9377 58.756 48.6217 58.892 48.3817 59.164C48.1497 59.428 48.0057 59.816 47.9497 60.328H50.6137C50.5977 59.832 50.4777 59.448 50.2537 59.176C50.0297 58.896 49.7217 58.756 49.3297 58.756ZM58.4083 64.156C57.4723 64.156 56.7283 63.864 56.1763 63.28C55.6323 62.688 55.3603 61.892 55.3603 60.892C55.3603 60.228 55.4923 59.648 55.7563 59.152C56.0283 58.656 56.3963 58.276 56.8603 58.012C57.3323 57.748 57.8643 57.616 58.4563 57.616C59.0403 57.616 59.5363 57.728 59.9443 57.952V59.188C59.5763 58.956 59.1363 58.84 58.6243 58.84C58.0723 58.84 57.6403 59.024 57.3283 59.392C57.0163 59.752 56.8603 60.248 56.8603 60.88C56.8603 61.512 57.0203 62.012 57.3403 62.38C57.6603 62.748 58.0923 62.932 58.6363 62.932C59.1643 62.932 59.6283 62.804 60.0283 62.548V63.784C59.5643 64.032 59.0243 64.156 58.4083 64.156ZM61.5033 55.06H62.9913V58.408C63.1993 58.152 63.4513 57.956 63.7473 57.82C64.0513 57.684 64.3793 57.616 64.7313 57.616C65.3873 57.616 65.9113 57.84 66.3033 58.288C66.6953 58.736 66.8913 59.332 66.8913 60.076V64H65.4033V60.304C65.4033 59.84 65.3033 59.484 65.1033 59.236C64.9033 58.988 64.6153 58.864 64.2393 58.864C63.8633 58.864 63.5593 58.996 63.3273 59.26C63.1033 59.516 62.9913 59.864 62.9913 60.304V64H61.5033V55.06ZM68.4829 57.772H69.9709V64H68.4829V57.772ZM69.2269 56.836C68.9709 56.836 68.7549 56.752 68.5789 56.584C68.4109 56.416 68.3269 56.208 68.3269 55.96C68.3269 55.712 68.4109 55.504 68.5789 55.336C68.7549 55.168 68.9709 55.084 69.2269 55.084C69.4829 55.084 69.6949 55.168 69.8629 55.336C70.0389 55.504 70.1269 55.712 70.1269 55.96C70.1269 56.208 70.0389 56.416 69.8629 56.584C69.6949 56.752 69.4829 56.836 69.2269 56.836ZM71.6189 57.772H72.9269L73.0109 58.636C73.1949 58.316 73.4469 58.068 73.7669 57.892C74.0949 57.708 74.4629 57.616 74.8709 57.616C75.3909 57.616 75.8389 57.752 76.2149 58.024C76.5989 58.296 76.8909 58.676 77.0909 59.164C77.2909 59.652 77.3909 60.216 77.3909 60.856C77.3909 61.536 77.2789 62.124 77.0549 62.62C76.8389 63.116 76.5349 63.496 76.1429 63.76C75.7589 64.024 75.3149 64.156 74.8109 64.156C74.4589 64.156 74.1349 64.084 73.8389 63.94C73.5509 63.796 73.3069 63.588 73.1069 63.316V66.28H71.6189V57.772ZM74.4749 62.932C74.9149 62.932 75.2589 62.752 75.5069 62.392C75.7629 62.032 75.8909 61.532 75.8909 60.892C75.8909 60.252 75.7629 59.752 75.5069 59.392C75.2589 59.024 74.9149 58.84 74.4749 58.84C74.0349 58.84 73.6909 59.02 73.4429 59.38C73.1949 59.74 73.0709 60.236 73.0709 60.868C73.0709 61.5 73.1949 62.004 73.4429 62.38C73.6909 62.748 74.0349 62.932 74.4749 62.932Z" fill="#00A3A3"/>
<path opacity="0.4" fill-rule="evenodd" clip-rule="evenodd" d="M47 32C51.9706 32 56 27.9706 56 23C56 18.0294 51.9706 14 47 14C42.0294 14 38 18.0294 38 23C38 27.9706 42.0294 32 47 32Z" stroke="#00A3A3" stroke-width="1.5" stroke-linecap="round" stroke-linejoin="round"/>
<path d="M41.9995 21.8521C43.2295 20.7181 45.0105 20.0001 46.9995 20.0001C48.9885 20.0001 50.7695 20.7181 51.9995 21.8521" stroke="#00A3A3" stroke-width="1.5" stroke-linecap="round" stroke-linejoin="round"/>
<path d="M43.6684 23.8891C44.4884 23.2091 45.6754 22.7781 47.0014 22.7781C48.3274 22.7781 49.5144 23.2091 50.3344 23.8891" stroke="#00A3A3" stroke-width="1.5" stroke-linecap="round" stroke-linejoin="round"/>
<path d="M45.3332 25.9999C45.7432 25.6599 46.3372 25.4439 47.0002 25.4439C47.6633 25.4439 48.2573 25.6589 48.6673 25.9999" stroke="#00A3A3" stroke-width="1.5" stroke-linecap="round" stroke-linejoin="round"/>
</svg>
