<svg width="24" height="24" viewBox="0 0 24 24" fill="none" xmlns="http://www.w3.org/2000/svg">
<path d="M10.6945 20C5.86154 20 1.94446 15.971 1.94446 11C1.94446 6.029 5.86154 2 10.6945 2C15.5274 2 19.4445 6.029 19.4445 11" stroke="white" stroke-width="1.5" stroke-linecap="round" stroke-linejoin="round"/>
<path opacity="0.8" d="M21.3889 14H20.1658L19.1878 19.031H14.2965L13.6111 15.509H19.8722" stroke="white" stroke-opacity="0.8" stroke-width="1.5" stroke-linecap="round" stroke-linejoin="round"/>
<path opacity="0.8" d="M14.7506 21.512C14.7701 21.492 14.8012 21.492 14.8196 21.512C14.8381 21.532 14.8391 21.564 14.8196 21.583C14.8002 21.602 14.7691 21.603 14.7506 21.583C14.7312 21.563 14.7312 21.531 14.7506 21.512" stroke="white" stroke-width="1.5" stroke-linecap="round" stroke-linejoin="round"/>
<path opacity="0.8" d="M18.6638 21.512C18.6833 21.492 18.7144 21.492 18.7328 21.512C18.7513 21.532 18.7523 21.564 18.7328 21.583C18.7134 21.602 18.6823 21.603 18.6638 21.583C18.6444 21.563 18.6444 21.531 18.6638 21.512" stroke="white" stroke-width="1.5" stroke-linecap="round" stroke-linejoin="round"/>
<path d="M14.5833 11C14.5833 8.23599 13.8804 5.47199 12.4765 3.05999C11.653 1.64699 9.73582 1.64699 8.91332 3.05999C6.1036 7.88499 6.1036 14.116 8.91332 18.941C9.32457 19.647 10.009 20 10.6944 20" stroke="white" stroke-width="1.5" stroke-linecap="round" stroke-linejoin="round"/>
<path d="M2.44031 8H18.4723" stroke="white" stroke-width="1.5" stroke-linecap="round" stroke-linejoin="round"/>
<path d="M2.44031 14H10.6945" stroke="white" stroke-width="1.5" stroke-linecap="round" stroke-linejoin="round"/>
</svg>
