<svg width="21" height="22" viewBox="0 0 21 22" fill="none" xmlns="http://www.w3.org/2000/svg">
<path fill-rule="evenodd" clip-rule="evenodd" d="M9.12398 8H4.87598C4.32398 8 3.87598 7.552 3.87598 7V5C3.87598 4.448 4.32398 4 4.87598 4H9.12398C9.67598 4 10.124 4.448 10.124 5V7C10.124 7.552 9.67598 8 9.12398 8Z" stroke="#00A3A3" stroke-width="1.5" stroke-linecap="round" stroke-linejoin="round"/>
<path d="M16 5.32605V5.32605C16.732 6.05805 16.732 7.24505 16 7.97805V7.97805" stroke="#00A3A3" stroke-width="1.5" stroke-linecap="round" stroke-linejoin="round"/>
<path opacity="0.6" d="M19.094 4C20.558 5.464 20.558 7.839 19.094 9.303" stroke="#279696" stroke-width="1.5" stroke-linecap="round" stroke-linejoin="round"/>
<path opacity="0.6" fill-rule="evenodd" clip-rule="evenodd" d="M17 21H8C7.448 21 7 20.552 7 20V15C7 14.448 7.448 14 8 14H17C17.552 14 18 14.448 18 15V20C18 20.552 17.552 21 17 21Z" stroke="#279696" stroke-width="1.5" stroke-linecap="round" stroke-linejoin="round"/>
<path opacity="0.6" d="M13 14V3C13 1.895 12.105 1 11 1H3C1.895 1 1 1.895 1 3V15C1 16.105 1.895 17 3 17H7" stroke="#279696" stroke-width="1.5" stroke-linecap="round" stroke-linejoin="round"/>
<path d="M7 17H18" stroke="#00A3A3" stroke-width="1.5" stroke-linecap="round" stroke-linejoin="round"/>
<path d="M4 10.99C3.997 10.99 3.995 10.992 3.995 10.995C3.995 10.998 3.997 11 4 11C4.003 11 4.005 10.998 4.005 10.995C4.005 10.992 4.003 10.99 4 10.99" stroke="#279696" stroke-width="1.5" stroke-linecap="round" stroke-linejoin="round"/>
<path d="M7 11C6.997 11 6.995 11.002 6.995 11.005C6.995 11.008 6.997 11.01 7 11.01C7.003 11.01 7.005 11.008 7.005 11.005C7.005 11.002 7.003 11 7 11" stroke="#279696" stroke-width="1.5" stroke-linecap="round" stroke-linejoin="round"/>
<path d="M10.005 10.995C10.002 10.995 10 10.997 10 11C10 11.003 10.002 11.005 10.005 11.005C10.008 11.005 10.01 11.003 10.01 11C10.01 10.997 10.008 10.995 10.005 10.995" stroke="#279696" stroke-width="1.5" stroke-linecap="round" stroke-linejoin="round"/>
</svg>
