<svg width="24" height="24" viewBox="0 0 24 24" fill="none" xmlns="http://www.w3.org/2000/svg">
<path d="M18.062 8.90111L17.986 7.78057C17.916 6.74111 17.044 5.93408 15.991 5.93408H5.73302C4.68002 5.93408 3.80802 6.74111 3.73802 7.78057L3.00502 18.6607C2.92802 19.802 3.84302 20.7692 5.00002 20.7692H6.00002" stroke="white" stroke-width="1.5" stroke-linecap="round" stroke-linejoin="round"/>
<path d="M7.862 5.93407V4.94506C7.862 3.30627 9.205 1.97803 10.862 1.97803V1.97803C12.519 1.97803 13.862 3.30627 13.862 4.94506V5.93407" stroke="white" stroke-width="1.5" stroke-linecap="round" stroke-linejoin="round"/>
<path opacity="0.8" fill-rule="evenodd" clip-rule="evenodd" d="M10.714 11.8681H19.714C20.425 11.8681 21 12.4368 21 13.14V19.4983C21 20.2005 20.425 20.7692 19.714 20.7692H10.714C10.004 20.7692 9.42798 20.2005 9.42798 19.4973V13.139C9.42898 12.4368 10.004 11.8681 10.714 11.8681V11.8681Z" stroke="white" stroke-opacity="0.8" stroke-width="1.5" stroke-linecap="round" stroke-linejoin="round"/>
<path opacity="0.8" d="M12.964 14.8351C12.964 16.0645 13.971 17.0604 15.214 17.0604C16.457 17.0604 17.464 16.0645 17.464 14.8351" stroke="white" stroke-opacity="0.8" stroke-width="1.5" stroke-linecap="round" stroke-linejoin="round"/>
</svg>
