<svg width="25" height="24" viewBox="0 0 25 24" fill="none" xmlns="http://www.w3.org/2000/svg">
<path d="M19.8401 10.625V3.774V3.774C19.8401 2.794 19.0218 2 18.0117 2H3.88967C2.87962 2 2.06128 2.794 2.06128 3.774V17.476C2.06128 18.456 2.87962 19.25 3.88967 19.25H12.3679" stroke="white" stroke-width="1.5" stroke-linecap="round" stroke-linejoin="round"/>
<path opacity="0.8" fill-rule="evenodd" clip-rule="evenodd" d="M22.8713 20.928H19.8906L17.9819 22.764C17.4562 23.269 16.5647 22.908 16.5647 22.191V14.808C16.5647 14.09 17.4603 13.729 17.9839 14.238L23.4598 19.551C23.9834 20.059 23.6134 20.928 22.8713 20.928V20.928Z" stroke="white" stroke-opacity="0.8" stroke-width="1.5" stroke-linecap="round" stroke-linejoin="round"/>
<path d="M15.9906 10.625H10.5693" stroke="white" stroke-width="1.5" stroke-linecap="round" stroke-linejoin="round"/>
<path d="M6.49518 10.448C6.59618 10.546 6.59618 10.704 6.49518 10.802C6.39417 10.9 6.23133 10.9 6.13033 10.802C6.02932 10.704 6.02932 10.546 6.13033 10.448C6.23133 10.351 6.39417 10.351 6.49518 10.448" stroke="white" stroke-width="1.5" stroke-linecap="round" stroke-linejoin="round"/>
<path d="M15.9906 6.125H10.5693" stroke="white" stroke-width="1.5" stroke-linecap="round" stroke-linejoin="round"/>
<path d="M6.49518 5.95099C6.59618 6.04899 6.59618 6.20699 6.49518 6.30499C6.39417 6.40299 6.23133 6.40299 6.13033 6.30499C6.02932 6.20699 6.02932 6.04899 6.13033 5.95099C6.23133 5.85299 6.39417 5.85399 6.49518 5.95099" stroke="white" stroke-width="1.5" stroke-linecap="round" stroke-linejoin="round"/>
<path d="M12.3678 15.125H10.6621" stroke="white" stroke-width="1.5" stroke-linecap="round" stroke-linejoin="round"/>
<path d="M6.58588 14.952C6.68688 15.05 6.68688 15.208 6.58588 15.306C6.48487 15.404 6.32203 15.404 6.22102 15.306C6.12002 15.208 6.12002 15.05 6.22102 14.952C6.32203 14.854 6.48487 14.855 6.58588 14.952" stroke="white" stroke-width="1.5" stroke-linecap="round" stroke-linejoin="round"/>
</svg>
