<svg width="85" height="28" viewBox="0 0 85 28" fill="none" xmlns="http://www.w3.org/2000/svg">
<path d="M84.0883 17.6075H65.3335C62.6017 17.6075 61.4446 16.5298 60.9718 15.1005H66.8857C70.8368 15.1005 73.2653 13.3451 73.2653 9.55684C73.2653 5.76856 70.8368 3.81676 66.8857 3.81676H65.0076C61.4686 3.81676 57.1675 5.89384 56.2588 10.8652H50.9785V0H46.5039V10.8652H40.9809C35.6865 10.8922 32.7387 13.5957 32.3549 17.6075H23.1137C20.3818 17.6075 19.2247 16.5298 18.752 15.1005H24.6602C28.6113 15.1005 31.0398 13.3451 31.0398 9.55684C31.0398 5.76856 28.6099 3.81676 24.6602 3.81676H22.7835C19.2445 3.81676 14.9435 5.89384 14.0347 10.8652H10.1599C7.72996 10.8652 5.57522 11.6183 4.38849 13.0946V11.1997H0V26.8298C0 27.721 0.282218 28 1.12887 28H3.34146C4.16978 28 4.47034 27.7153 4.47034 26.8298V20.6726C4.47034 16.0201 7.37013 15.1005 10.3518 15.1005H14.0799C15.0098 19.7173 18.8409 21.9239 23.283 21.9239H32.9151C34.0228 24.5947 36.6644 25.9913 40.9005 25.9913H43.4616C47.6596 25.9913 51.1944 22.9817 51.1944 18.5528V15.1005H56.3025C57.2339 19.7173 61.065 21.9239 65.5043 21.9239H84.0883C84.3336 21.9202 84.5674 21.8184 84.7383 21.6409C84.9092 21.4634 85.0033 21.2247 84.9999 20.9772V18.5001C84.9984 18.381 84.9737 18.2634 84.927 18.154C84.8803 18.0446 84.8127 17.9456 84.728 17.8627C84.6433 17.7797 84.5432 17.7145 84.4334 17.6707C84.3236 17.6269 84.2064 17.6054 84.0883 17.6075ZM22.617 8.05206H24.7985C25.7863 8.05206 26.4834 8.47061 26.4834 9.4757C26.4834 10.4224 25.7933 10.868 24.7985 10.868H18.6264C18.9947 9.29632 20.0206 8.05206 22.617 8.05206ZM46.5039 18.6951C46.5039 20.4505 45.1789 21.7047 43.4658 21.7047H40.5943C38.2744 21.7047 36.7561 20.785 36.7561 18.4731C36.7561 16.2166 38.2744 15.1019 40.5943 15.1019H46.5039V18.6951ZM64.8411 8.05206H67.0268C68.0146 8.05206 68.7117 8.47061 68.7117 9.4757C68.7117 10.4224 68.0217 10.868 67.0268 10.868H60.8533C61.2188 9.29632 62.2447 8.05206 64.8411 8.05206Z" fill="#EC7000"/>
</svg>
