<svg width="64" height="44" viewBox="0 0 64 44" fill="none" xmlns="http://www.w3.org/2000/svg">
<path d="M0.672 0.771999H1.98L2.064 1.636C2.248 1.316 2.5 1.068 2.82 0.892C3.148 0.708 3.516 0.616 3.924 0.616C4.444 0.616 4.892 0.752 5.268 1.024C5.652 1.296 5.944 1.676 6.144 2.164C6.344 2.652 6.444 3.216 6.444 3.856C6.444 4.536 6.332 5.124 6.108 5.62C5.892 6.116 5.588 6.496 5.196 6.76C4.812 7.024 4.368 7.156 3.864 7.156C3.512 7.156 3.188 7.084 2.892 6.94C2.604 6.796 2.36 6.588 2.16 6.316V9.28H0.672V0.771999ZM3.528 5.932C3.968 5.932 4.312 5.752 4.56 5.392C4.816 5.032 4.944 4.532 4.944 3.892C4.944 3.252 4.816 2.752 4.56 2.392C4.312 2.024 3.968 1.84 3.528 1.84C3.088 1.84 2.744 2.02 2.496 2.38C2.248 2.74 2.124 3.236 2.124 3.868C2.124 4.5 2.248 5.004 2.496 5.38C2.744 5.748 3.088 5.932 3.528 5.932ZM10.6123 7.156C9.63631 7.156 8.87231 6.864 8.32031 6.28C7.76831 5.696 7.49231 4.892 7.49231 3.868C7.49231 3.212 7.61231 2.64 7.85231 2.152C8.10031 1.656 8.44031 1.276 8.87231 1.012C9.30431 0.748 9.79631 0.616 10.3483 0.616C11.1563 0.616 11.7923 0.888 12.2563 1.432C12.7203 1.976 12.9523 2.728 12.9523 3.688V4.36H8.92031C9.00031 4.888 9.20031 5.288 9.52031 5.56C9.84031 5.832 10.2683 5.968 10.8043 5.968C11.3963 5.968 11.9843 5.816 12.5683 5.512V6.7C12.0083 7.004 11.3563 7.156 10.6123 7.156ZM10.2883 1.756C9.89631 1.756 9.58031 1.892 9.34031 2.164C9.10831 2.428 8.96431 2.816 8.90831 3.328H11.5723C11.5563 2.832 11.4363 2.448 11.2123 2.176C10.9883 1.896 10.6803 1.756 10.2883 1.756ZM17.145 7.156C16.209 7.156 15.465 6.864 14.913 6.28C14.369 5.688 14.097 4.892 14.097 3.892C14.097 3.228 14.229 2.648 14.493 2.152C14.765 1.656 15.133 1.276 15.597 1.012C16.069 0.748 16.601 0.616 17.193 0.616C17.777 0.616 18.273 0.728 18.681 0.952V2.188C18.313 1.956 17.873 1.84 17.361 1.84C16.809 1.84 16.377 2.024 16.065 2.392C15.753 2.752 15.597 3.248 15.597 3.88C15.597 4.512 15.757 5.012 16.077 5.38C16.397 5.748 16.829 5.932 17.373 5.932C17.901 5.932 18.365 5.804 18.765 5.548V6.784C18.301 7.032 17.761 7.156 17.145 7.156ZM17.373 6.856L17.133 7.732C17.509 7.764 17.809 7.88 18.033 8.08C18.257 8.288 18.369 8.548 18.369 8.86C18.369 9.26 18.213 9.576 17.901 9.808C17.589 10.04 17.165 10.156 16.629 10.156C16.397 10.156 16.141 10.116 15.861 10.036V9.244C16.101 9.308 16.317 9.34 16.509 9.34C16.741 9.34 16.925 9.296 17.061 9.208C17.197 9.12 17.265 8.996 17.265 8.836C17.265 8.532 17.001 8.38 16.473 8.38H16.101L16.497 6.856H17.373ZM21.8628 7.156C21.2548 7.156 20.7668 6.992 20.3988 6.664C20.0308 6.336 19.8468 5.896 19.8468 5.344C19.8468 4.64 20.1268 4.096 20.6868 3.712C21.2468 3.32 22.0428 3.124 23.0748 3.124C23.1628 3.124 23.2508 3.124 23.3388 3.124C23.4268 3.124 23.5108 3.128 23.5908 3.136C23.5668 2.688 23.4388 2.356 23.2068 2.14C22.9748 1.924 22.6268 1.816 22.1628 1.816C21.5708 1.816 20.9788 1.984 20.3868 2.32V1.12C21.0348 0.784 21.7028 0.616 22.3908 0.616C23.2308 0.616 23.8788 0.848 24.3348 1.312C24.7908 1.768 25.0188 2.424 25.0188 3.28V7H23.7828L23.6988 6.28C23.5068 6.552 23.2468 6.768 22.9188 6.928C22.5988 7.08 22.2468 7.156 21.8628 7.156ZM22.2708 6.1C22.6388 6.1 22.9508 5.968 23.2068 5.704C23.4708 5.44 23.6028 5.12 23.6028 4.744V4.132C23.5228 4.132 23.4388 4.132 23.3508 4.132C23.2708 4.124 23.1868 4.12 23.0988 4.12C22.5068 4.12 22.0508 4.212 21.7308 4.396C21.4188 4.572 21.2628 4.832 21.2628 5.176C21.2628 5.456 21.3548 5.68 21.5388 5.848C21.7228 6.016 21.9668 6.1 22.2708 6.1ZM30.6893 7.156C30.0813 7.156 29.5933 6.992 29.2253 6.664C28.8573 6.336 28.6733 5.896 28.6733 5.344C28.6733 4.64 28.9533 4.096 29.5133 3.712C30.0733 3.32 30.8693 3.124 31.9013 3.124C31.9893 3.124 32.0773 3.124 32.1653 3.124C32.2533 3.124 32.3373 3.128 32.4173 3.136C32.3933 2.688 32.2653 2.356 32.0333 2.14C31.8013 1.924 31.4533 1.816 30.9893 1.816C30.3973 1.816 29.8053 1.984 29.2133 2.32V1.12C29.8613 0.784 30.5293 0.616 31.2173 0.616C32.0573 0.616 32.7053 0.848 33.1613 1.312C33.6173 1.768 33.8453 2.424 33.8453 3.28V7H32.6093L32.5253 6.28C32.3333 6.552 32.0733 6.768 31.7453 6.928C31.4253 7.08 31.0733 7.156 30.6893 7.156ZM31.0973 6.1C31.4653 6.1 31.7773 5.968 32.0333 5.704C32.2973 5.44 32.4293 5.12 32.4293 4.744V4.132C32.3493 4.132 32.2653 4.132 32.1773 4.132C32.0973 4.124 32.0133 4.12 31.9253 4.12C31.3333 4.12 30.8773 4.212 30.5573 4.396C30.2453 4.572 30.0893 4.832 30.0893 5.176C30.0893 5.456 30.1813 5.68 30.3653 5.848C30.5493 6.016 30.7933 6.1 31.0973 6.1ZM39.4559 7.156C38.7119 7.156 38.0519 7.02 37.4759 6.748V5.524C38.0279 5.836 38.6359 5.992 39.2999 5.992C39.6599 5.992 39.9399 5.928 40.1399 5.8C40.3399 5.672 40.4399 5.488 40.4399 5.248C40.4399 5.048 40.3519 4.888 40.1759 4.768C40.0079 4.648 39.6639 4.516 39.1439 4.372C38.5759 4.212 38.1559 3.984 37.8839 3.688C37.6119 3.384 37.4759 2.996 37.4759 2.524C37.4759 1.956 37.7079 1.496 38.1719 1.144C38.6359 0.792 39.2399 0.616 39.9839 0.616C40.5279 0.616 41.0479 0.72 41.5439 0.927999V2.116C41.0719 1.892 40.5639 1.78 40.0199 1.78C39.6759 1.78 39.4079 1.84 39.2159 1.96C39.0239 2.072 38.9279 2.24 38.9279 2.464C38.9279 2.656 39.0079 2.812 39.1679 2.932C39.3359 3.044 39.6599 3.168 40.1399 3.304C40.7639 3.472 41.2159 3.712 41.4959 4.024C41.7839 4.328 41.9279 4.732 41.9279 5.236C41.9279 5.82 41.7039 6.288 41.2559 6.64C40.8159 6.984 40.2159 7.156 39.4559 7.156ZM45.2959 7.156C44.6559 7.156 44.1439 6.936 43.7599 6.496C43.3839 6.048 43.1959 5.452 43.1959 4.708V0.771999H44.6839V4.468C44.6839 4.94 44.7799 5.304 44.9719 5.56C45.1719 5.808 45.4519 5.932 45.8119 5.932C46.1719 5.932 46.4599 5.8 46.6759 5.536C46.8999 5.272 47.0119 4.92 47.0119 4.48V0.771999H48.4999V7H47.2039L47.1199 6.268C46.9199 6.556 46.6599 6.776 46.3399 6.928C46.0279 7.08 45.6799 7.156 45.2959 7.156ZM51.8815 7.156C51.2735 7.156 50.7855 6.992 50.4175 6.664C50.0495 6.336 49.8655 5.896 49.8655 5.344C49.8655 4.64 50.1455 4.096 50.7055 3.712C51.2655 3.32 52.0615 3.124 53.0935 3.124C53.1815 3.124 53.2695 3.124 53.3575 3.124C53.4455 3.124 53.5295 3.128 53.6095 3.136C53.5855 2.688 53.4575 2.356 53.2255 2.14C52.9935 1.924 52.6455 1.816 52.1815 1.816C51.5895 1.816 50.9975 1.984 50.4055 2.32V1.12C51.0535 0.784 51.7215 0.616 52.4095 0.616C53.2495 0.616 53.8975 0.848 54.3535 1.312C54.8095 1.768 55.0375 2.424 55.0375 3.28V7H53.8015L53.7175 6.28C53.5255 6.552 53.2655 6.768 52.9375 6.928C52.6175 7.08 52.2655 7.156 51.8815 7.156ZM52.2895 6.1C52.6575 6.1 52.9695 5.968 53.2255 5.704C53.4895 5.44 53.6215 5.12 53.6215 4.744V4.132C53.5415 4.132 53.4575 4.132 53.3695 4.132C53.2895 4.124 53.2055 4.12 53.1175 4.12C52.5255 4.12 52.0695 4.212 51.7495 4.396C51.4375 4.572 51.2815 4.832 51.2815 5.176C51.2815 5.456 51.3735 5.68 51.5575 5.848C51.7415 6.016 51.9855 6.1 52.2895 6.1ZM0.672 18.772H1.98L2.052 19.456C2.252 19.184 2.496 18.976 2.784 18.832C3.072 18.688 3.392 18.616 3.744 18.616C4.112 18.616 4.44 18.704 4.728 18.88C5.024 19.056 5.256 19.312 5.424 19.648C5.632 19.32 5.9 19.068 6.228 18.892C6.556 18.708 6.924 18.616 7.332 18.616C7.932 18.616 8.412 18.824 8.772 19.24C9.132 19.648 9.312 20.192 9.312 20.872V25H7.824V21.112C7.824 20.712 7.736 20.404 7.56 20.188C7.384 19.972 7.14 19.864 6.828 19.864C6.5 19.864 6.236 19.976 6.036 20.2C5.836 20.424 5.736 20.724 5.736 21.1V25H4.248V21.112C4.248 20.712 4.16 20.404 3.984 20.188C3.816 19.972 3.568 19.864 3.24 19.864C2.92 19.864 2.66 19.98 2.46 20.212C2.26 20.436 2.16 20.732 2.16 21.1V25H0.672V18.772ZM12.6495 25.156C12.0415 25.156 11.5535 24.992 11.1855 24.664C10.8175 24.336 10.6335 23.896 10.6335 23.344C10.6335 22.64 10.9135 22.096 11.4735 21.712C12.0335 21.32 12.8295 21.124 13.8615 21.124C13.9495 21.124 14.0375 21.124 14.1255 21.124C14.2135 21.124 14.2975 21.128 14.3775 21.136C14.3535 20.688 14.2255 20.356 13.9935 20.14C13.7615 19.924 13.4135 19.816 12.9495 19.816C12.3575 19.816 11.7655 19.984 11.1735 20.32V19.12C11.8215 18.784 12.4895 18.616 13.1775 18.616C14.0175 18.616 14.6655 18.848 15.1215 19.312C15.5775 19.768 15.8055 20.424 15.8055 21.28V25H14.5695L14.4855 24.28C14.2935 24.552 14.0335 24.768 13.7055 24.928C13.3855 25.08 13.0335 25.156 12.6495 25.156ZM13.0575 24.1C13.4255 24.1 13.7375 23.968 13.9935 23.704C14.2575 23.44 14.3895 23.12 14.3895 22.744V22.132C14.3095 22.132 14.2255 22.132 14.1375 22.132C14.0575 22.124 13.9735 22.12 13.8855 22.12C13.2935 22.12 12.8375 22.212 12.5175 22.396C12.2055 22.572 12.0495 22.832 12.0495 23.176C12.0495 23.456 12.1415 23.68 12.3255 23.848C12.5095 24.016 12.7535 24.1 13.0575 24.1ZM21.381 24.28C21.189 24.56 20.937 24.776 20.625 24.928C20.321 25.08 19.985 25.156 19.617 25.156C19.097 25.156 18.645 25.02 18.261 24.748C17.885 24.476 17.597 24.096 17.397 23.608C17.197 23.12 17.097 22.556 17.097 21.916C17.097 20.908 17.333 20.108 17.805 19.516C18.285 18.916 18.929 18.616 19.737 18.616C20.529 18.616 21.129 18.932 21.537 19.564L21.621 18.772H22.869V27.28H21.381V24.28ZM20.025 23.932C20.457 23.932 20.797 23.752 21.045 23.392C21.301 23.032 21.429 22.536 21.429 21.904C21.429 21.272 21.305 20.772 21.057 20.404C20.809 20.028 20.465 19.84 20.025 19.84C19.577 19.84 19.225 20.02 18.969 20.38C18.721 20.74 18.597 21.24 18.597 21.88C18.597 22.52 18.721 23.024 18.969 23.392C19.225 23.752 19.577 23.932 20.025 23.932ZM26.5693 25.156C25.9293 25.156 25.4173 24.936 25.0333 24.496C24.6573 24.048 24.4693 23.452 24.4693 22.708V18.772H25.9573V22.468C25.9573 22.94 26.0533 23.304 26.2453 23.56C26.4453 23.808 26.7253 23.932 27.0853 23.932C27.4453 23.932 27.7333 23.8 27.9493 23.536C28.1733 23.272 28.2853 22.92 28.2853 22.48V18.772H29.7733V25H28.4773L28.3933 24.268C28.1933 24.556 27.9333 24.776 27.6133 24.928C27.3013 25.08 26.9533 25.156 26.5693 25.156ZM31.415 18.772H32.903V25H31.415V18.772ZM32.159 17.836C31.903 17.836 31.687 17.752 31.511 17.584C31.343 17.416 31.259 17.208 31.259 16.96C31.259 16.712 31.343 16.504 31.511 16.336C31.687 16.168 31.903 16.084 32.159 16.084C32.415 16.084 32.627 16.168 32.795 16.336C32.971 16.504 33.059 16.712 33.059 16.96C33.059 17.208 32.971 17.416 32.795 17.584C32.627 17.752 32.415 17.836 32.159 17.836ZM34.5509 18.772H35.8589L35.9429 19.528C36.1509 19.232 36.4109 19.008 36.7229 18.856C37.0429 18.696 37.3949 18.616 37.7789 18.616C38.4349 18.616 38.9589 18.84 39.3509 19.288C39.7429 19.736 39.9389 20.332 39.9389 21.076V25H38.4509V21.304C38.4509 20.84 38.3509 20.484 38.1509 20.236C37.9509 19.988 37.6629 19.864 37.2869 19.864C36.9109 19.864 36.6069 19.996 36.3749 20.26C36.1509 20.516 36.0389 20.864 36.0389 21.304V25H34.5509V18.772ZM41.5306 18.772H43.0186V25H41.5306V18.772ZM42.2746 17.836C42.0186 17.836 41.8026 17.752 41.6266 17.584C41.4586 17.416 41.3746 17.208 41.3746 16.96C41.3746 16.712 41.4586 16.504 41.6266 16.336C41.8026 16.168 42.0186 16.084 42.2746 16.084C42.5306 16.084 42.7426 16.168 42.9106 16.336C43.0866 16.504 43.1746 16.712 43.1746 16.96C43.1746 17.208 43.0866 17.416 42.9106 17.584C42.7426 17.752 42.5306 17.836 42.2746 17.836ZM44.6665 18.772H45.9745L46.0585 19.528C46.2665 19.232 46.5265 19.008 46.8385 18.856C47.1585 18.696 47.5105 18.616 47.8945 18.616C48.5505 18.616 49.0745 18.84 49.4665 19.288C49.8585 19.736 50.0545 20.332 50.0545 21.076V25H48.5665V21.304C48.5665 20.84 48.4665 20.484 48.2665 20.236C48.0665 19.988 47.7785 19.864 47.4025 19.864C47.0265 19.864 46.7225 19.996 46.4905 20.26C46.2665 20.516 46.1545 20.864 46.1545 21.304V25H44.6665V18.772ZM51.6462 16.06H53.1342V19.408C53.3422 19.152 53.5942 18.956 53.8902 18.82C54.1942 18.684 54.5222 18.616 54.8742 18.616C55.5302 18.616 56.0542 18.84 56.4462 19.288C56.8382 19.736 57.0342 20.332 57.0342 21.076V25H55.5462V21.304C55.5462 20.84 55.4462 20.484 55.2462 20.236C55.0462 19.988 54.7582 19.864 54.3822 19.864C54.0062 19.864 53.7022 19.996 53.4702 20.26C53.2462 20.516 53.1342 20.864 53.1342 21.304V25H51.6462V16.06ZM60.3659 25.156C59.7579 25.156 59.2699 24.992 58.9019 24.664C58.5339 24.336 58.3499 23.896 58.3499 23.344C58.3499 22.64 58.6299 22.096 59.1899 21.712C59.7499 21.32 60.5459 21.124 61.5779 21.124C61.6659 21.124 61.7539 21.124 61.8419 21.124C61.9299 21.124 62.0139 21.128 62.0939 21.136C62.0699 20.688 61.9419 20.356 61.7099 20.14C61.4779 19.924 61.1299 19.816 60.6659 19.816C60.0739 19.816 59.4819 19.984 58.8899 20.32V19.12C59.5379 18.784 60.2059 18.616 60.8939 18.616C61.7339 18.616 62.3819 18.848 62.8379 19.312C63.2939 19.768 63.5219 20.424 63.5219 21.28V25H62.2859L62.2019 24.28C62.0099 24.552 61.7499 24.768 61.4219 24.928C61.1019 25.08 60.7499 25.156 60.3659 25.156ZM60.7739 24.1C61.1419 24.1 61.4539 23.968 61.7099 23.704C61.9739 23.44 62.1059 23.12 62.1059 22.744V22.132C62.0259 22.132 61.9419 22.132 61.8539 22.132C61.7739 22.124 61.6899 22.12 61.6019 22.12C61.0099 22.12 60.5539 22.212 60.2339 22.396C59.9219 22.572 59.7659 22.832 59.7659 23.176C59.7659 23.456 59.8579 23.68 60.0419 23.848C60.2259 24.016 60.4699 24.1 60.7739 24.1ZM0.672 36.772H1.98L2.076 37.672C2.228 37.352 2.432 37.104 2.688 36.928C2.952 36.744 3.244 36.652 3.564 36.652C3.756 36.652 3.912 36.676 4.032 36.724V38.092C3.888 38.036 3.712 38.008 3.504 38.008C3.096 38.008 2.768 38.16 2.52 38.464C2.28 38.76 2.16 39.164 2.16 39.676V43H0.672V36.772ZM7.94044 43.156C6.96444 43.156 6.20044 42.864 5.64844 42.28C5.09644 41.696 4.82044 40.892 4.82044 39.868C4.82044 39.212 4.94044 38.64 5.18044 38.152C5.42844 37.656 5.76844 37.276 6.20044 37.012C6.63244 36.748 7.12444 36.616 7.67644 36.616C8.48444 36.616 9.12044 36.888 9.58444 37.432C10.0484 37.976 10.2804 38.728 10.2804 39.688V40.36H6.24844C6.32844 40.888 6.52844 41.288 6.84844 41.56C7.16844 41.832 7.59644 41.968 8.13244 41.968C8.72444 41.968 9.31244 41.816 9.89644 41.512V42.7C9.33644 43.004 8.68444 43.156 7.94044 43.156ZM7.61644 37.756C7.22444 37.756 6.90844 37.892 6.66844 38.164C6.43644 38.428 6.29244 38.816 6.23644 39.328H8.90044C8.88444 38.832 8.76444 38.448 8.54044 38.176C8.31644 37.896 8.00844 37.756 7.61644 37.756ZM13.9571 43.156C13.1891 43.156 12.5731 42.864 12.1091 42.28C11.6531 41.688 11.4251 40.9 11.4251 39.916C11.4251 39.236 11.5331 38.648 11.7491 38.152C11.9731 37.656 12.2771 37.276 12.6611 37.012C13.0531 36.748 13.5011 36.616 14.0051 36.616C14.3571 36.616 14.6771 36.688 14.9651 36.832C15.2611 36.976 15.5091 37.184 15.7091 37.456V34.06H17.1971V43H15.9011L15.8051 42.148C15.6211 42.468 15.3651 42.716 15.0371 42.892C14.7171 43.068 14.3571 43.156 13.9571 43.156ZM14.3531 41.932C14.7851 41.932 15.1251 41.752 15.3731 41.392C15.6291 41.032 15.7571 40.536 15.7571 39.904C15.7571 39.272 15.6331 38.772 15.3851 38.404C15.1371 38.028 14.7931 37.84 14.3531 37.84C13.9051 37.84 13.5531 38.02 13.2971 38.38C13.0491 38.74 12.9251 39.24 12.9251 39.88C12.9251 40.52 13.0491 41.024 13.2971 41.392C13.5531 41.752 13.9051 41.932 14.3531 41.932ZM21.6654 43.156C20.6894 43.156 19.9254 42.864 19.3734 42.28C18.8214 41.696 18.5454 40.892 18.5454 39.868C18.5454 39.212 18.6654 38.64 18.9054 38.152C19.1534 37.656 19.4934 37.276 19.9254 37.012C20.3574 36.748 20.8494 36.616 21.4014 36.616C22.2094 36.616 22.8454 36.888 23.3094 37.432C23.7734 37.976 24.0054 38.728 24.0054 39.688V40.36H19.9734C20.0534 40.888 20.2534 41.288 20.5734 41.56C20.8934 41.832 21.3214 41.968 21.8574 41.968C22.4494 41.968 23.0374 41.816 23.6214 41.512V42.7C23.0614 43.004 22.4094 43.156 21.6654 43.156ZM21.3414 37.756C20.9494 37.756 20.6334 37.892 20.3934 38.164C20.1614 38.428 20.0174 38.816 19.9614 39.328H22.6254C22.6094 38.832 22.4894 38.448 22.2654 38.176C22.0414 37.896 21.7334 37.756 21.3414 37.756Z" fill="white"/>
</svg>
